<svg width="98" height="96" viewBox="0 0 98 96" fill="none" xmlns="http://www.w3.org/2000/svg">
<g id="Group 1">
<ellipse id="Ellipse 3" cx="49.6903" cy="47.4293" rx="48.1425" ry="47.4293" fill="url(#paint0_linear_44_270)"/>
<g id="Ellipse 2" filter="url(#filter0_d_44_270)">
<ellipse cx="49.6903" cy="47.4293" rx="37.8262" ry="37.2659" fill="url(#paint1_linear_44_270)" shape-rendering="crispEdges"/>
</g>
<g id="Ellipse 1" filter="url(#filter1_d_44_270)">
<ellipse cx="49.7959" cy="47.4293" rx="27.51" ry="27.1024" fill="url(#paint2_linear_44_270)" shape-rendering="crispEdges"/>
</g>
<path id="Star 2" d="M62.5749 30.8266C62.6494 30.3103 63.3946 30.3103 63.4691 30.8266L63.6188 31.8642C63.6475 32.0631 63.8041 32.2191 64.0032 32.247L65.012 32.3883C65.5308 32.4609 65.5308 33.2103 65.012 33.283L64.0032 33.4242C63.8041 33.4521 63.6475 33.6082 63.6188 33.8071L63.4691 34.8447C63.3946 35.3609 62.6494 35.3609 62.5749 34.8447L62.4252 33.8071C62.3965 33.6082 62.2398 33.4521 62.0408 33.4242L61.0319 33.283C60.5132 33.2103 60.5132 32.4609 61.0319 32.3883L62.0408 32.247C62.2398 32.2191 62.3965 32.0631 62.4252 31.8642L62.5749 30.8266Z" fill="#FDF07D"/>
<path id="Star 3" d="M35.9116 60.0138C35.9861 59.4976 36.7312 59.4976 36.8057 60.0138L36.9554 61.0514C36.9841 61.2504 37.1408 61.4064 37.3399 61.4343L38.3487 61.5755C38.8675 61.6482 38.8675 62.3976 38.3487 62.4702L37.3399 62.6115C37.1408 62.6394 36.9841 62.7954 36.9554 62.9943L36.8057 64.0319C36.7312 64.5482 35.9861 64.5482 35.9116 64.0319L35.7619 62.9943C35.7332 62.7954 35.5765 62.6394 35.3774 62.6115L34.3686 62.4702C33.8498 62.3976 33.8498 61.6482 34.3686 61.5755L35.3774 61.4343C35.5765 61.4064 35.7332 61.2504 35.7619 61.0514L35.9116 60.0138Z" fill="#FDF07D"/>
<g id="Group 10">
<rect id="Rectangle 1" x="38.9191" y="36.8228" width="21.542" height="21.2129" rx="1.91976" fill="white" stroke="#A4A4A4" stroke-width="0.677561"/>
<path id="icon" d="M44.5059 47.1859L49.0637 51.0775L56.3563 42.3214" stroke="#5C5E5E" stroke-width="2.25854" stroke-linecap="round" stroke-linejoin="round"/>
</g>
</g>
<defs>
<filter id="filter0_d_44_270" x="0.571331" y="3.38784" width="93.7209" height="92.6" filterUnits="userSpaceOnUse" color-interpolation-filters="sRGB">
<feFlood flood-opacity="0" result="BackgroundImageFix"/>
<feColorMatrix in="SourceAlpha" type="matrix" values="0 0 0 0 0 0 0 0 0 0 0 0 0 0 0 0 0 0 127 0" result="hardAlpha"/>
<feOffset dx="-2.25854" dy="2.25854"/>
<feGaussianBlur stdDeviation="4.51707"/>
<feComposite in2="hardAlpha" operator="out"/>
<feColorMatrix type="matrix" values="0 0 0 0 0 0 0 0 0 0 0 0 0 0 0 0 0 0 0.25 0"/>
<feBlend mode="normal" in2="BackgroundImageFix" result="effect1_dropShadow_44_270"/>
<feBlend mode="normal" in="SourceGraphic" in2="effect1_dropShadow_44_270" result="shape"/>
</filter>
<filter id="filter1_d_44_270" x="8.73467" y="6.77564" width="82.1225" height="81.3073" filterUnits="userSpaceOnUse" color-interpolation-filters="sRGB">
<feFlood flood-opacity="0" result="BackgroundImageFix"/>
<feColorMatrix in="SourceAlpha" type="matrix" values="0 0 0 0 0 0 0 0 0 0 0 0 0 0 0 0 0 0 127 0" result="hardAlpha"/>
<feOffset/>
<feGaussianBlur stdDeviation="6.77561"/>
<feComposite in2="hardAlpha" operator="out"/>
<feColorMatrix type="matrix" values="0 0 0 0 0 0 0 0 0 0 0 0 0 0 0 0 0 0 0.25 0"/>
<feBlend mode="normal" in2="BackgroundImageFix" result="effect1_dropShadow_44_270"/>
<feBlend mode="normal" in="SourceGraphic" in2="effect1_dropShadow_44_270" result="shape"/>
</filter>
<linearGradient id="paint0_linear_44_270" x1="44.8761" y1="-10.7794" x2="49.5488" y2="198.19" gradientUnits="userSpaceOnUse">
<stop stop-color="#54ECC4"/>
<stop offset="1" stop-color="#4DFFD0" stop-opacity="0.37"/>
</linearGradient>
<linearGradient id="paint1_linear_44_270" x1="45.9076" y1="1.69394" x2="52.9169" y2="186.676" gradientUnits="userSpaceOnUse">
<stop stop-color="#81F3FF"/>
<stop offset="1" stop-color="#EDEDED" stop-opacity="0"/>
</linearGradient>
<linearGradient id="paint2_linear_44_270" x1="49.7959" y1="-15.5839" x2="49.7959" y2="76.2256" gradientUnits="userSpaceOnUse">
<stop stop-color="white" stop-opacity="0.1"/>
<stop offset="0.465491" stop-color="white" stop-opacity="0.8"/>
<stop offset="0.465591" stop-color="white" stop-opacity="0.8"/>
</linearGradient>
</defs>
</svg>
